<?xml version="1.0" encoding="UTF-8"?>
<svg id="Layer_1" data-name="Layer 1" xmlns="http://www.w3.org/2000/svg" viewBox="0 0 91.31 108.92">
  <defs>
    <style>
      .cls-1 {
        fill: #3d5af1;
        stroke-width: 0px;
      }
    </style>
  </defs>
  <path class="cls-1" d="M76.72,108.87c-21.9,0-43.36.15-64.82-.09-6.64-.08-11.75-5.65-11.78-12.58-.15-27.8-.17-55.6,0-83.41C.17,5.62,5.69.22,13.01.14,32.49-.08,51.97,0,71.45.11c1.14,0,2.28,1.27,3.42,1.95-.83.61-1.58,1.47-2.51,1.8-4.14,1.45-6.94,5.38-6.65,9.9.3,4.74,2.94,7.86,7.49,8.75,2.84.55,3.95,1.53,3.94,4.47-.09,26.47-.07,52.94-.09,79.41,0,.64-.16,1.27-.31,2.47ZM61.67,54.69c.22-5.92-2.99-10.27-9.47-12.52-2.49-.87-4.64-1.32-4.36-4.82.06-.81-2.28-2.52-3.52-2.53-1.28-.01-3.7,1.59-3.67,2.41.14,3.48-1.92,3.9-4.5,4.7-8.25,2.55-12.17,10.21-9.2,17.58,1.95,4.86,6.41,6.51,10.84,8.04,4.24,1.46,8.66,2.46,12.74,4.24,1.44.63,3.02,2.99,2.95,4.49-.07,1.54-1.78,3.55-3.3,4.37-5.01,2.7-11.53,1.06-15.18-3.39-1.64-2-8.83-3.28-9.24-1.55-.52,2.19,0,5.45,1.43,7.07,2.19,2.5,5.44,4.13,8.4,5.85,1.35.79,3.09.92,4.5,1.3.32,2.13.58,3.87.84,5.64h6.76c.24-2.1.44-3.87.63-5.54,2.73-.91,5.38-1.49,7.74-2.65,5.05-2.47,7.85-6.56,7.73-12.35-.13-5.76-3.43-9.17-8.52-11.09-2.33-.88-4.76-1.47-7.13-2.24-3.15-1.02-6.47-1.73-9.38-3.23-3.5-1.81-3.6-5.99-.59-8.19,3.18-2.32,10.56-2.2,12.45,1.08,2.96,5.16,6.9,3.84,11.06,3.32ZM65.21,3.88c-17.4,0-33.82-.05-50.25.02-6.69.03-11.11,4-11.05,9.59.06,5.57,4.47,9.27,11.28,9.29,15.14.04,30.29.02,45.43,0,1.24,0,2.48-.17,4.44-.31-4.35-6.13-4.18-11.93.15-18.6Z"/>
  <path class="cls-1" d="M81.82,99.14v-22.22c3.48,1.44,7.98,2.03,8.44,3.73,1.2,4.38,1.41,9.45.36,13.84-.45,1.88-5.03,2.77-8.8,4.65Z"/>
  <path class="cls-1" d="M81.72,52.75v-19.66c3.2,1.02,7.89,1.36,8.28,2.85,1.21,4.55,1.55,9.69.61,14.27-.38,1.83-4.99,2.78-7.67,4.13-.4-.53-.81-1.06-1.21-1.59Z"/>
  <path class="cls-1" d="M81.81,77.05v-22.24c3.47,1.41,8,1.99,8.46,3.67,1.19,4.4,1.42,9.48.35,13.88-.46,1.9-5.05,2.81-8.81,4.69Z"/>
</svg>